<svg width="800" height="600" viewBox="0 0 800 600" xmlns="http://www.w3.org/2000/svg">

<!-- BACKGROUND -->
<rect width="800" height="520" fill="#0D0D0D"/>

<!-- ─────────────────────────────────────── -->
<!-- HEADER                                 -->
<!-- ─────────────────────────────────────── -->
<text x="30" y="36" font-family="sans-serif" font-weight="bold" font-size="22" fill="#F2F2F2" letter-spacing="1">FIGURE 2 — The Schema Coherence Gap</text>
<text x="30" y="57" font-family="sans-serif" font-size="12" fill="#9A9A9A">Identical δ, divergent σ — divergent generalisation outcome</text>
<line x1="30" y1="67" x2="770" y2="67" stroke="#3A3A3A" stroke-width="1"/>

<!-- ─────────────────────────────────────── -->
<!-- LEGEND — top-right, ends at x=775 y=63 -->
<!-- sits fully above the rule at y=67       -->
<!-- ─────────────────────────────────────── -->
<rect x="568" y="10" width="207" height="53" fill="#111111" stroke="#3A3A3A" stroke-width="1" rx="4"/>
<rect x="578" y="21" width="11" height="11" fill="#F4A823" rx="2"/>
<text x="596" y="31" font-family="monospace" font-size="11" fill="#F2F2F2">δ  Parametric depth</text>
<rect x="578" y="37" width="11" height="11" fill="#00FFFF" rx="2"/>
<text x="596" y="47" font-family="monospace" font-size="11" fill="#F2F2F2">σ  Schema coherence</text>
<line x1="578" y1="56" x2="590" y2="56" stroke="#E8E8E8" stroke-width="1.5" stroke-dasharray="3,2"/>
<text x="596" y="60" font-family="monospace" font-size="11" fill="#F2F2F2">σ_critical  threshold</text>

<!-- ─────────────────────────────────────── -->
<!-- COLUMN DIVIDERS                         -->
<!-- Left|Mid: x=274   Mid|Right: x=526      -->
<!-- ─────────────────────────────────────── -->
<line x1="274" y1="72" x2="274" y2="464" stroke="#3A3A3A" stroke-width="1" stroke-dasharray="6,4"/>
<line x1="526" y1="72" x2="526" y2="464" stroke="#3A3A3A" stroke-width="1" stroke-dasharray="6,4"/>

<!-- ════════════════════════════════════════ -->
<!-- LEFT COLUMN — AGENT A                   -->
<!-- column x=20–274, centre x=147           -->
<!-- ════════════════════════════════════════ -->

<!-- Header box: x=22 y=76 w=248 h=66 -->
<rect x="22" y="76" width="248" height="66" fill="#1A1A1A" stroke="#3A3A3A" stroke-width="1" rx="6"/>
<text x="37" y="99" font-family="sans-serif" font-weight="bold" font-size="15" fill="#F2F2F2">Agent A</text>
<text x="37" y="118" font-family="monospace" font-size="13" fill="#F4A823">δ = 0.82</text>
<text x="37" y="134" font-family="monospace" font-size="13" fill="#00FFFF">σ = 0.79</text>

<!-- σ meter -->
<text x="22" y="157" font-family="monospace" font-size="10" fill="#6B6B6B">Schema Coherence σ</text>
<rect x="22" y="161" width="195" height="11" fill="#3A3A3A" rx="5"/>
<rect x="22" y="161" width="154" height="11" fill="#00FFFF" rx="5"/>
<!-- σ_c tick at 45% of 195 = 88px → x=22+88=110 -->
<line x1="110" y1="159" x2="110" y2="174" stroke="#E8E8E8" stroke-width="1.5"/>
<text x="110" y="184" font-family="monospace" font-size="8" fill="#E8E8E8" text-anchor="middle">σ<tspan baseline-shift="sub" font-size="70%">c</tspan></text>
<text x="221" y="170" font-family="monospace" font-size="11" fill="#00FFFF">0.79</text>

<!-- δ meter -->
<text x="22" y="197" font-family="monospace" font-size="10" fill="#6B6B6B">Depth δ</text>
<rect x="22" y="201" width="195" height="11" fill="#3A3A3A" rx="5"/>
<rect x="22" y="201" width="160" height="11" fill="#F4A823" rx="5"/>
<text x="221" y="210" font-family="monospace" font-size="11" fill="#F4A823">0.82</text>

<!-- ─────────────────────────────── -->
<!-- Knowledge Graph — Agent A      -->
<!-- Dense: all adj edges (H+V+diag)-->
<!-- Cols: x=107,147,187  (Δ=40)    -->
<!-- Rows: y=224,268,312,356 (Δ=44) -->
<!-- ─────────────────────────────── -->
<g stroke="#00FFFF" stroke-width="1" stroke-opacity="0.36" fill="none">
  <!-- Horizontal -->
  <line x1="107" y1="224" x2="147" y2="224"/><line x1="147" y1="224" x2="187" y2="224"/>
  <line x1="107" y1="268" x2="147" y2="268"/><line x1="147" y1="268" x2="187" y2="268"/>
  <line x1="107" y1="312" x2="147" y2="312"/><line x1="147" y1="312" x2="187" y2="312"/>
  <line x1="107" y1="356" x2="147" y2="356"/><line x1="147" y1="356" x2="187" y2="356"/>
  <!-- Vertical -->
  <line x1="107" y1="224" x2="107" y2="268"/><line x1="147" y1="224" x2="147" y2="268"/><line x1="187" y1="224" x2="187" y2="268"/>
  <line x1="107" y1="268" x2="107" y2="312"/><line x1="147" y1="268" x2="147" y2="312"/><line x1="187" y1="268" x2="187" y2="312"/>
  <line x1="107" y1="312" x2="107" y2="356"/><line x1="147" y1="312" x2="147" y2="356"/><line x1="187" y1="312" x2="187" y2="356"/>
  <!-- Diagonal row 0→1 -->
  <line x1="107" y1="224" x2="147" y2="268"/><line x1="147" y1="224" x2="107" y2="268"/>
  <line x1="147" y1="224" x2="187" y2="268"/><line x1="187" y1="224" x2="147" y2="268"/>
  <!-- Diagonal row 1→2 -->
  <line x1="107" y1="268" x2="147" y2="312"/><line x1="147" y1="268" x2="107" y2="312"/>
  <line x1="147" y1="268" x2="187" y2="312"/><line x1="187" y1="268" x2="147" y2="312"/>
  <!-- Diagonal row 2→3 -->
  <line x1="107" y1="312" x2="147" y2="356"/><line x1="147" y1="312" x2="107" y2="356"/>
  <line x1="147" y1="312" x2="187" y2="356"/><line x1="187" y1="312" x2="147" y2="356"/>
</g>
<!-- Nodes drawn after edges -->
<circle cx="107" cy="224" r="9" fill="#264A7A" stroke="#00FFFF" stroke-width="1.5"/>
<circle cx="147" cy="224" r="9" fill="#264A7A" stroke="#00FFFF" stroke-width="1.5"/>
<circle cx="187" cy="224" r="9" fill="#264A7A" stroke="#00FFFF" stroke-width="1.5"/>
<circle cx="107" cy="268" r="9" fill="#264A7A" stroke="#00FFFF" stroke-width="1.5"/>
<circle cx="147" cy="268" r="9" fill="#264A7A" stroke="#00FFFF" stroke-width="1.5"/>
<circle cx="187" cy="268" r="9" fill="#264A7A" stroke="#00FFFF" stroke-width="1.5"/>
<circle cx="107" cy="312" r="9" fill="#264A7A" stroke="#00FFFF" stroke-width="1.5"/>
<circle cx="147" cy="312" r="9" fill="#264A7A" stroke="#00FFFF" stroke-width="1.5"/>
<circle cx="187" cy="312" r="9" fill="#264A7A" stroke="#00FFFF" stroke-width="1.5"/>
<circle cx="107" cy="356" r="9" fill="#264A7A" stroke="#00FFFF" stroke-width="1.5"/>
<circle cx="147" cy="356" r="9" fill="#264A7A" stroke="#00FFFF" stroke-width="1.5"/>
<circle cx="187" cy="356" r="9" fill="#264A7A" stroke="#00FFFF" stroke-width="1.5"/>

<!-- Sublabel — centered, short enough to stay within column -->
<text x="147" y="377" font-family="sans-serif" font-size="10" font-style="italic" fill="#9A9A9A" text-anchor="middle">Principled generative structure</text>

<!-- ════════════════════════════════════════ -->
<!-- MIDDLE COLUMN — PROBE                   -->
<!-- column x=274–526, centre x=400          -->
<!-- ════════════════════════════════════════ -->

<text x="400" y="93" font-family="sans-serif" font-size="10" fill="#6B6B6B" letter-spacing="1" text-anchor="middle">NOVEL COMPOSITIONAL PROBE</text>

<!-- Hexagon icon, centre (400,175), r=40 (pointy-top) -->
<!-- top=(400,135), upper-R=(435,155), lower-R=(435,195), bot=(400,215), lower-L=(365,195), upper-L=(365,155) -->
<polygon points="400,135 435,155 435,195 400,215 365,195 365,155" fill="none" stroke="#E8E8E8" stroke-width="1.5"/>

<!-- Inner primitives relative to centre (400,175) -->
<!-- Circle at (−14,+10) = (386,185) -->
<circle cx="386" cy="185" r="7" fill="none" stroke="#9A9A9A" stroke-width="1.5"/>
<!-- Triangle centred at (+14,+10) = (414,185) -->
<polygon points="414,179 422,192 406,192" fill="none" stroke="#9A9A9A" stroke-width="1.5"/>
<!-- Square centred at (0,−12) = (400,163), 14×14 -->
<rect x="393" y="156" width="14" height="14" fill="none" stroke="#9A9A9A" stroke-width="1.5"/>

<!-- Probe labels -->
<text x="400" y="237" font-family="monospace" font-size="11" fill="#9A9A9A" text-anchor="middle">OOD recombination task</text>
<text x="400" y="253" font-family="monospace" font-size="10" fill="#6B6B6B" text-anchor="middle">primitives seen · combination novel</text>

<!-- Connector line from hexagon bottom to σ_c band -->
<line x1="400" y1="217" x2="400" y2="278" stroke="#2A2A2A" stroke-width="1"/>

<!-- σ_critical threshold band — middle column only (x=282–518) -->
<line x1="283" y1="281" x2="517" y2="281" stroke="#E8E8E8" stroke-width="1" stroke-dasharray="6,4" opacity="0.55"/>
<text x="400" y="278" font-family="monospace" font-size="9" fill="#E8E8E8" text-anchor="middle" opacity="0.8">σ_critical</text>

<!-- Per-agent σ annotations below threshold -->
<text x="333" y="302" font-family="monospace" font-size="10" fill="#00FFFF" text-anchor="middle">σ<tspan baseline-shift="sub" font-size="70%">A</tspan> = 0.79 &gt; σ<tspan baseline-shift="sub" font-size="70%">c</tspan></text>
<text x="467" y="302" font-family="monospace" font-size="10" fill="#F4A823" text-anchor="middle">σ<tspan baseline-shift="sub" font-size="70%">B</tspan> = 0.19 &lt; σ<tspan baseline-shift="sub" font-size="70%">c</tspan></text>

<!-- ─────────────────────────────── -->
<!-- Outcome Arrows — both at y=330  -->
<!-- symmetric: each 110px long      -->
<!-- ─────────────────────────────── -->

<!-- Left arrow → Agent A (✓ Solved) -->
<line x1="392" y1="330" x2="283" y2="330" stroke="#00FFFF" stroke-width="2.5"/>
<polygon points="283,330 294,324 294,336" fill="#00FFFF"/>
<text x="337" y="323" font-family="sans-serif" font-weight="bold" font-size="12" fill="#00FFFF" text-anchor="middle">✓  Solved</text>
<text x="337" y="343" font-family="monospace" font-size="9" fill="#6B6B6B" text-anchor="middle">σ<tspan baseline-shift="sub" font-size="70%">A</tspan> &gt; σ<tspan baseline-shift="sub" font-size="70%">critical</tspan></text>

<!-- Right arrow → Agent B (✗ Failed) -->
<line x1="408" y1="330" x2="517" y2="330" stroke="#F4A823" stroke-width="2.5"/>
<polygon points="517,330 506,324 506,336" fill="#F4A823"/>
<text x="463" y="323" font-family="sans-serif" font-weight="bold" font-size="12" fill="#F4A823" text-anchor="middle">✗  Failed</text>
<text x="463" y="343" font-family="monospace" font-size="9" fill="#6B6B6B" text-anchor="middle">σ<tspan baseline-shift="sub" font-size="70%">B</tspan> &lt; σ<tspan baseline-shift="sub" font-size="70%">critical</tspan></text>

<!-- ════════════════════════════════════════ -->
<!-- RIGHT COLUMN — AGENT B                  -->
<!-- column x=526–778, centre x=652          -->
<!-- ════════════════════════════════════════ -->

<!-- Header box: x=528 y=76 w=248 h=66 — ends at x=776, no legend overlap -->
<rect x="528" y="76" width="248" height="66" fill="#1A1A1A" stroke="#3A3A3A" stroke-width="1" rx="6"/>
<text x="543" y="99" font-family="sans-serif" font-weight="bold" font-size="15" fill="#F2F2F2">Agent B</text>
<text x="543" y="118" font-family="monospace" font-size="13" fill="#F4A823">δ = 0.81</text>
<!-- σ in amber (low/failure signal) matching δ — no cyan, no principled structure -->
<text x="543" y="134" font-family="monospace" font-size="13" fill="#F4A823">σ = 0.19</text>

<!-- σ meter -->
<text x="531" y="157" font-family="monospace" font-size="10" fill="#6B6B6B">Schema Coherence σ</text>
<rect x="531" y="161" width="195" height="11" fill="#3A3A3A" rx="5"/>
<!-- 19% fill = 37px; visually starved vs Agent A's 154px -->
<rect x="531" y="161" width="37" height="11" fill="#F4A823" rx="5"/>
<!-- σ_c tick at 45%: x=531+88=619 — clearly to the right of the fill, showing σ_B < σ_c -->
<line x1="619" y1="159" x2="619" y2="174" stroke="#E8E8E8" stroke-width="1.5"/>
<text x="619" y="184" font-family="monospace" font-size="8" fill="#E8E8E8" text-anchor="middle">σ<tspan baseline-shift="sub" font-size="70%">c</tspan></text>
<text x="730" y="170" font-family="monospace" font-size="11" fill="#F4A823">0.19</text>

<!-- δ meter -->
<text x="531" y="197" font-family="monospace" font-size="10" fill="#6B6B6B">Depth δ</text>
<rect x="531" y="201" width="195" height="11" fill="#3A3A3A" rx="5"/>
<!-- 81% fill = 158px — nearly identical to Agent A's 160px -->
<rect x="531" y="201" width="158" height="11" fill="#F4A823" rx="5"/>
<text x="730" y="210" font-family="monospace" font-size="11" fill="#F4A823">0.81</text>

<!-- ─────────────────────────────── -->
<!-- Knowledge Graph — Agent B      -->
<!-- Sparse: 7 edges, nodes isolated -->
<!-- Cols: x=613,653,693  (Δ=40)    -->
<!-- Rows: y=224,268,312,356 (Δ=44) -->
<!-- ─────────────────────────────── -->
<g stroke="#F4A823" stroke-width="1" stroke-opacity="0.45" fill="none">
  <!-- 7 asymmetric, non-spanning edges. Nodes at (693,224), (693,268), (653,268) are isolated. -->
  <line x1="613" y1="224" x2="653" y2="224"/>  <!-- top-row, left-centre only -->
  <line x1="653" y1="224" x2="653" y2="268"/>  <!-- centre col, top segment -->
  <line x1="613" y1="268" x2="613" y2="312"/>  <!-- left col, mid segment -->
  <line x1="693" y1="268" x2="693" y2="312"/>  <!-- right col, mid segment (disconnected from rest) -->
  <line x1="613" y1="312" x2="653" y2="312"/>  <!-- mid-row, left-centre -->
  <line x1="653" y1="312" x2="653" y2="356"/>  <!-- centre col, bottom segment -->
  <line x1="613" y1="356" x2="693" y2="356"/>  <!-- bottom row, full width (but disconnected from upper) -->
</g>
<!-- Nodes (same grid positions as Agent A for direct visual comparison) -->
<circle cx="613" cy="224" r="9" fill="#1A1A1A" stroke="#F4A823" stroke-width="1.5"/>
<circle cx="653" cy="224" r="9" fill="#1A1A1A" stroke="#F4A823" stroke-width="1.5"/>
<circle cx="693" cy="224" r="9" fill="#1A1A1A" stroke="#F4A823" stroke-width="1.5"/>
<circle cx="613" cy="268" r="9" fill="#1A1A1A" stroke="#F4A823" stroke-width="1.5"/>
<circle cx="653" cy="268" r="9" fill="#1A1A1A" stroke="#F4A823" stroke-width="1.5"/>
<circle cx="693" cy="268" r="9" fill="#1A1A1A" stroke="#F4A823" stroke-width="1.5"/>
<circle cx="613" cy="312" r="9" fill="#1A1A1A" stroke="#F4A823" stroke-width="1.5"/>
<circle cx="653" cy="312" r="9" fill="#1A1A1A" stroke="#F4A823" stroke-width="1.5"/>
<circle cx="693" cy="312" r="9" fill="#1A1A1A" stroke="#F4A823" stroke-width="1.5"/>
<circle cx="613" cy="356" r="9" fill="#1A1A1A" stroke="#F4A823" stroke-width="1.5"/>
<circle cx="653" cy="356" r="9" fill="#1A1A1A" stroke="#F4A823" stroke-width="1.5"/>
<circle cx="693" cy="356" r="9" fill="#1A1A1A" stroke="#F4A823" stroke-width="1.5"/>

<!-- Sublabel — centred, within column (spans ~145px either side of x=653) -->
<text x="653" y="377" font-family="sans-serif" font-size="10" font-style="italic" fill="#9A9A9A" text-anchor="middle">Surface-statistics index</text>

<!-- ─────────────────────────────────────── -->
<!-- DIAGNOSTIC ANNOTATION BOX              -->
<!-- x=162 y=394 w=476 h=46 → ends x=638   -->
<!-- ─────────────────────────────────────── -->
<rect x="162" y="394" width="476" height="46" fill="#1A1A1A" stroke="#3A3A3A" stroke-width="1" rx="6"/>
<!-- Coloured formula. Starting x=178 centres the ~440px text on x=400. -->
<text y="423" font-family="monospace" font-size="13">
<tspan x="178" fill="#F4A823">δ<tspan baseline-shift="sub" font-size="70%">A</tspan> ≈ δ<tspan baseline-shift="sub" font-size="70%">B</tspan></tspan>
<tspan fill="#F2F2F2"> ∧ </tspan>
<tspan fill="#00FFFF">σ<tspan baseline-shift="sub" font-size="70%">A</tspan> ≫ σ<tspan baseline-shift="sub" font-size="70%">B</tspan></tspan>
<tspan fill="#F2F2F2"> ⟹ T<tspan baseline-shift="sub" font-size="70%">A</tspan>(novel) ≫ T<tspan baseline-shift="sub" font-size="70%">B</tspan>(novel)</tspan>
</text>

<!-- ─────────────────────────────────────── -->
<!-- CAPTION BAR                            -->
<!-- ─────────────────────────────────────── -->
<rect x="30" y="455" width="740" height="52" fill="#111111" rx="4"/>
<text x="400" y="477" font-family="sans-serif" font-size="12" fill="#9A9A9A" text-anchor="middle">Brittle expert failure mode: high δ without σ saturates in-distribution · collapses OOD</text>
<text x="400" y="495" font-family="sans-serif" font-size="12" fill="#9A9A9A" text-anchor="middle">Schema coherence — not depth — is the operative variable for novel compositional generalisation</text>

</svg>
