<!-- SYSTEM: axis-stroke #3A3A3A -->
<svg xmlns="http://www.w3.org/2000/svg" viewBox="0 0 800 600" width="800" height="600">
  <defs>
    <!-- Corrected gradient: Bottom (y1=1) to Top (y2=0) -->
    <linearGradient id="d3Gradient" x1="0" y1="1" x2="0" y2="0">
      <stop offset="0%" stop-color="#4A4A4A" />
      <stop offset="100%" stop-color="#E8940A" />
    </linearGradient>

    <!-- Standardized Arc Markers -->
    <marker id="dotArc" viewBox="0 0 10 10" refX="5" refY="5" markerWidth="6" markerHeight="6" orient="auto">
      <circle cx="5" cy="5" r="3" fill="#7EC8E3" />
    </marker>
    <marker id="arrowPsi" viewBox="0 0 10 10" refX="9" refY="5" markerWidth="6" markerHeight="6" orient="auto-start-reverse">
      <path d="M 0 0 L 10 5 L 0 10 z" fill="#7EC8E3" />
    </marker>
  </defs>

  <!-- Background -->
  <rect width="800" height="600" fill="#0D0D0D" />

  <!-- Phase title & Trigger -->
  <text x="40" y="45" fill="#F2F2F2" font-size="22" font-weight="bold" font-family="'Segoe UI', Arial, sans-serif">
    PHASE 4 <tspan fill="#CCCCCC" font-weight="normal">— Multi-Domain Frontier Navigation</tspan>
  </text>
  <text x="40" y="68" fill="#9A9A9A" font-size="14" font-family="'Segoe UI', Arial, sans-serif">
    Triggered: Ψ > 0 across ≥1 active intersection
  </text>

  <!-- Legend / Glossary Block (Shared 5-row template) -->
  <rect x="560" y="25" width="220" height="125" fill="#111111" stroke="#3A3A3A" stroke-width="1" rx="4"/>
  <rect x="575" y="40" width="12" height="12" fill="#F4A823" rx="2"/>
  <text x="595" y="50" font-family="'Courier New', Courier, monospace" font-size="11" fill="#F2F2F2">δ Parametric depth</text>
  <rect x="575" y="60" width="12" height="12" fill="#264A7A" rx="2"/>
  <text x="595" y="70" font-family="'Courier New', Courier, monospace" font-size="11" fill="#F2F2F2">D* Delegation floor</text>
  <rect x="575" y="80" width="12" height="12" fill="#00FFFF" rx="2"/>
  <text x="595" y="90" font-family="'Courier New', Courier, monospace" font-size="11" fill="#F2F2F2">Ψ Intersection activation</text>
  <line x1="575" y1="105" x2="587" y2="105" stroke="#E8E8E8" stroke-width="1.5" stroke-dasharray="4,2"/>
  <text x="595" y="109" font-family="'Courier New', Courier, monospace" font-size="11" fill="#F2F2F2">Δ(d,t) Frontier</text>
  <rect x="575" y="117" width="5" height="12" fill="#F4A823" rx="1"/>
  <rect x="582" y="117" width="5" height="12" fill="#4A4A4A" rx="1"/>
  <text x="595" y="127" font-family="'Courier New', Courier, monospace" font-size="11" fill="#F2F2F2">Agent A vs B Depth</text>

  <!-- ===================== AGENT A (LEFT PANEL) ===================== -->
  <g id="agent-a">
    <text x="40" y="110" fill="#F4A823" font-size="18" font-weight="bold" font-family="'Segoe UI', Arial, sans-serif">Agent A</text>
    <text x="40" y="130" fill="#F4A823" font-size="14" font-family="'Courier New', Courier, monospace">σ<tspan baseline-shift="sub" font-size="10">A</tspan> = 0.91</text>

    <!-- Y-axis Label -->
    <text transform="rotate(-90)" x="-300" y="10" font-family="'Segoe UI', Arial, sans-serif" font-size="14" fill="#6B6B6B" text-anchor="middle">δ (Agent A)</text>

    <!-- Y-axis Line & Ticks -->
    <line x1="30" y1="120" x2="30" y2="480" stroke="#3A3A3A" stroke-width="1.5" />
    <g stroke="#3A3A3A" stroke-width="1.5">
      <line x1="25" y1="120" x2="30" y2="120" />
      <line x1="25" y1="192" x2="30" y2="192" />
      <line x1="25" y1="264" x2="30" y2="264" />
      <line x1="25" y1="336" x2="30" y2="336" />
      <line x1="25" y1="408" x2="30" y2="408" />
      <line x1="25" y1="480" x2="30" y2="480" />
    </g>
    <g fill="#9A9A9A" font-size="13" font-family="'Courier New', Courier, monospace" text-anchor="end">
      <text x="20" y="124">1.0</text>
      <text x="20" y="196">0.8</text>
      <text x="20" y="268">0.6</text>
      <text x="20" y="340">0.4</text>
      <text x="20" y="412">0.2</text>
      <text x="20" y="484">0.0</text>
    </g>

    <!-- X-axis Baseline -->
    <line x1="30" y1="480" x2="370" y2="480" stroke="#3A3A3A" stroke-width="1.5" />

    <!-- Localized Reference Lines -->
    <line x1="30" y1="240" x2="370" y2="240" stroke="#777777" stroke-width="1.5" stroke-dasharray="12,6" />
    <text x="35" y="235" fill="#777777" font-size="12" font-family="'Segoe UI', Arial, sans-serif">Frontier Δ(d,t)</text>

    <line x1="30" y1="340" x2="370" y2="340" stroke="#555555" stroke-width="1.5" stroke-dasharray="8,4" />
    <text x="35" y="335" fill="#555555" font-size="12" font-family="'Segoe UI', Arial, sans-serif">Mastery threshold</text>

    <!-- Base Bars -->
    <rect x="40" y="402" width="35" height="78" fill="#4A4A4A" rx="2" />
    <rect x="95" y="189" width="35" height="291" fill="#FF6B1A" rx="2" />
    <rect x="150" y="336" width="35" height="144" fill="url(#d3Gradient)" rx="2" />
    <rect x="205" y="198" width="35" height="282" fill="#F4A823" rx="2" />
    <rect x="260" y="405" width="35" height="75" fill="#4A4A4A" rx="2" />
    <rect x="315" y="426" width="35" height="54" fill="#4A4A4A" rx="2" />

    <!-- Delegation Overlays -->
    <g fill="#1C3A5E" fill-opacity="0.85">
      <rect x="40" y="402" width="35" height="78" rx="2" />
      <rect x="95" y="444" width="35" height="36" rx="2" />
      <rect x="150" y="375" width="35" height="105" rx="2" />
      <rect x="205" y="435" width="35" height="45" rx="2" />
      <rect x="260" y="405" width="35" height="75" rx="2" />
      <rect x="315" y="426" width="35" height="54" rx="2" />
    </g>

    <!-- Domain Labels -->
    <g fill="#9A9A9A" font-size="14" font-family="'Courier New', Courier, monospace" font-weight="bold" text-anchor="middle">
      <text x="57.5" y="495">D1</text>
      <text x="112.5" y="495">D2</text>
      <text x="167.5" y="495" fill="#FFFFFF">D3</text>
      <text x="222.5" y="495">D4</text>
      <text x="277.5" y="495">D5</text>
      <text x="332.5" y="495">D6</text>
    </g>

    <!-- Ψ Arc & Marker -->
    <path d="M 112.5 189 Q 167.5 70 222.5 198" fill="none" stroke="#7EC8E3" stroke-width="2.5" marker-start="url(#dotArc)" marker-end="url(#arrowPsi)" />
    <text x="167.5" y="115" fill="#7EC8E3" font-size="13" font-family="'Courier New', Courier, monospace" font-weight="bold" text-anchor="middle">Ψ > 0 ACTIVE</text>

    <!-- Threshold Crossing Event Marker -->
    <g transform="translate(167.5, 336)">
      <line x1="-10" y1="-10" x2="-14" y2="-14" stroke="#7EC8E3" stroke-width="1.5" />
      <line x1="10" y1="-10" x2="14" y2="-14" stroke="#7EC8E3" stroke-width="1.5" />
      <line x1="-10" y1="10" x2="-14" y2="14" stroke="#7EC8E3" stroke-width="1.5" />
      <line x1="10" y1="10" x2="14" y2="14" stroke="#7EC8E3" stroke-width="1.5" />
      <circle cx="0" cy="0" r="9" fill="#7EC8E3" />
      <text x="0" y="-19" font-family="'Segoe UI', Arial, sans-serif" font-size="11" fill="#7EC8E3" font-weight="bold" text-anchor="middle">Ψ activates here</text>
    </g>

    <!-- Outcome Box -->
    <rect x="67.5" y="515" width="200" height="26" rx="13" fill="#0D2A1A" stroke="#2ECC71" stroke-width="1" />
    <text x="167.5" y="533" fill="#2ECC71" font-size="13" font-weight="bold" font-family="'Segoe UI', Arial, sans-serif" text-anchor="middle">Compositional test: PASS ✓</text>
  </g>

  <!-- ===================== CENTER DIVIDER ===================== -->
  <line x1="400" y1="120" x2="400" y2="550" stroke="#3A3A3A" stroke-width="1.5" />
  <circle cx="400" cy="85" r="16" fill="none" stroke="#3A3A3A" stroke-width="1.5" />
  <text x="400" y="89" fill="#6B6B6B" font-size="12" font-family="'Segoe UI', Arial, sans-serif" font-weight="bold" text-anchor="middle">VS</text>

  <!-- ===================== AGENT B (RIGHT PANEL) ===================== -->
  <g id="agent-b">
    <text x="440" y="110" fill="#9A9A9A" font-size="18" font-weight="bold" font-family="'Segoe UI', Arial, sans-serif">Agent B</text>
    <text x="440" y="130" fill="#9A9A9A" font-size="14" font-family="'Courier New', Courier, monospace">σ<tspan baseline-shift="sub" font-size="10">B</tspan> = 0.22</text>

    <!-- Y-axis Label -->
    <text transform="rotate(-90)" x="-300" y="410" font-family="'Segoe UI', Arial, sans-serif" font-size="14" fill="#6B6B6B" text-anchor="middle">δ (Agent B)</text>

    <!-- Y-axis Line & Ticks -->
    <line x1="430" y1="120" x2="430" y2="480" stroke="#3A3A3A" stroke-width="1.5" />
    <g stroke="#3A3A3A" stroke-width="1.5">
      <line x1="425" y1="120" x2="430" y2="120" />
      <line x1="425" y1="192" x2="430" y2="192" />
      <line x1="425" y1="264" x2="430" y2="264" />
      <line x1="425" y1="336" x2="430" y2="336" />
      <line x1="425" y1="408" x2="430" y2="408" />
      <line x1="425" y1="480" x2="430" y2="480" />
    </g>
    <g fill="#9A9A9A" font-size="13" font-family="'Courier New', Courier, monospace" text-anchor="end">
      <text x="420" y="124">1.0</text>
      <text x="420" y="196">0.8</text>
      <text x="420" y="268">0.6</text>
      <text x="420" y="340">0.4</text>
      <text x="420" y="412">0.2</text>
      <text x="420" y="484">0.0</text>
    </g>

    <!-- X-axis Baseline -->
    <line x1="430" y1="480" x2="770" y2="480" stroke="#3A3A3A" stroke-width="1.5" />

    <!-- Localized Reference Lines -->
    <line x1="430" y1="240" x2="770" y2="240" stroke="#777777" stroke-width="1.5" stroke-dasharray="12,6" />
    <text x="435" y="235" fill="#777777" font-size="12" font-family="'Segoe UI', Arial, sans-serif">Frontier Δ(d,t)</text>

    <line x1="430" y1="340" x2="770" y2="340" stroke="#555555" stroke-width="1.5" stroke-dasharray="8,4" />
    <text x="435" y="335" fill="#555555" font-size="12" font-family="'Segoe UI', Arial, sans-serif">Mastery threshold</text>

    <!-- Base Bars -->
    <rect x="440" y="402" width="35" height="78" fill="#4A4A4A" rx="2" />
    <rect x="495" y="189" width="35" height="291" fill="#4A4A4A" rx="2" />
    <rect x="550" y="336" width="35" height="144" fill="#4A4A4A" rx="2" />
    <rect x="605" y="198" width="35" height="282" fill="#4A4A4A" rx="2" />
    <rect x="660" y="405" width="35" height="75" fill="#4A4A4A" rx="2" />
    <rect x="715" y="426" width="35" height="54" fill="#4A4A4A" rx="2" />

    <!-- Delegation Overlays -->
    <g fill="#1C3A5E" fill-opacity="0.85">
      <rect x="440" y="402" width="35" height="78" rx="2" />
      <rect x="495" y="300" width="35" height="180" rx="2" />
      <rect x="550" y="336" width="35" height="144" rx="2" />
      <rect x="605" y="306" width="35" height="174" rx="2" />
      <rect x="660" y="405" width="35" height="75" rx="2" />
      <rect x="715" y="426" width="35" height="54" rx="2" />
    </g>

    <!-- Domain Labels -->
    <g fill="#9A9A9A" font-size="14" font-family="'Courier New', Courier, monospace" font-weight="bold" text-anchor="middle">
      <text x="457.5" y="495">D1</text>
      <text x="512.5" y="495">D2</text>
      <text x="567.5" y="495" fill="#FFFFFF">D3</text>
      <text x="622.5" y="495">D4</text>
      <text x="677.5" y="495">D5</text>
      <text x="732.5" y="495">D6</text>
    </g>

    <!-- Activation Failure X Marker -->
    <path d="M 557.5 305 L 577.5 325 M 577.5 305 L 557.5 325" stroke="#E05252" stroke-width="2" />
    <text x="567.5" y="295" fill="#E05252" font-size="12" font-weight="bold" font-family="'Segoe UI', Arial, sans-serif" text-anchor="middle">Ψ = 0 (σ insufficient)</text>
    <line x1="567.5" y1="325" x2="567.5" y2="336" stroke="#E05252" stroke-width="1.5" stroke-dasharray="3,3" />

    <!-- Outcome Box -->
    <rect x="467.5" y="515" width="200" height="26" rx="13" fill="#2A0D0D" stroke="#E05252" stroke-width="1" />
    <text x="567.5" y="533" fill="#E05252" font-size="13" font-weight="bold" font-family="'Segoe UI', Arial, sans-serif" text-anchor="middle">Compositional test: FAIL ✗</text>
  </g>

  <!-- ===================== CAPTION ===================== -->
  <rect x="100" y="555" width="600" height="44" fill="#111111" rx="4"/>
  <text x="400" y="581" font-family="'Segoe UI', Arial, sans-serif" font-size="12" fill="#9A9A9A" text-anchor="middle">
    Identical δ. Identical training time. σ alone determines Ψ activation and compositional test outcome.
  </text>

  <!-- Cross-phase orientation indicator (Phase 4 = 5th pip) -->
  <g transform="translate(400, 592)">
    <circle cx="-32" cy="0" r="4" fill="#3A3A3A" />
    <circle cx="-16" cy="0" r="4" fill="#3A3A3A" />
    <circle cx="0"   cy="0" r="4" fill="#3A3A3A" />
    <circle cx="16"  cy="0" r="4" fill="#3A3A3A" />
    <circle cx="32"  cy="0" r="4.5" fill="#F2F2F2" />
  </g>

</svg>
